/* XPM */
static char * cb01_48_xpm[] = {
"48 36 243 2",
"  	c None",
". 	c #88CEDF",
"+ 	c #92D2E2",
"@ 	c #9DD7E5",
"# 	c #9ED7E5",
"$ 	c #91D2E2",
"% 	c #96D4E3",
"& 	c #C7E8F0",
"* 	c #E5F4F8",
"= 	c #E8F5F9",
"- 	c #E4F4F8",
"; 	c #C4E7EF",
"> 	c #94D3E2",
", 	c #8ACFE0",
"' 	c #B5E1EB",
") 	c #F2FAFC",
"! 	c #FFFFFF",
"~ 	c #EFF9FB",
"{ 	c #B1DFEA",
"] 	c #89CFDF",
"^ 	c #90D1E1",
"/ 	c #CEEBF2",
"( 	c #FDFEFF",
"_ 	c #FEFFFF",
": 	c #FDFEFE",
"< 	c #FCFEFE",
"[ 	c #FBFDFE",
"} 	c #FAFDFE",
"| 	c #FAFDFD",
"1 	c #F9FDFD",
"2 	c #F8FCFD",
"3 	c #F7FCFD",
"4 	c #F6FBFC",
"5 	c #F5FBFC",
"6 	c #F4FBFC",
"7 	c #F4FAFC",
"8 	c #F3FAFC",
"9 	c #F0F9FB",
"0 	c #C3E6EF",
"a 	c #8ED0E1",
"b 	c #D7EEF4",
"c 	c #F2FAFB",
"d 	c #F2F9FB",
"e 	c #F1F9FB",
"f 	c #EFF8FB",
"g 	c #EEF8FA",
"h 	c #EDF8FA",
"i 	c #EDF7FA",
"j 	c #ECF7FA",
"k 	c #EBF7FA",
"l 	c #EBF7F9",
"m 	c #EAF6F9",
"n 	c #E9F6F9",
"o 	c #E8F6F9",
"p 	c #E7F5F9",
"q 	c #E7F5F8",
"r 	c #E6F5F8",
"s 	c #E3F4F7",
"t 	c #E3F3F7",
"u 	c #E2F3F7",
"v 	c #E1F3F7",
"w 	c #E0F2F7",
"x 	c #91D2E1",
"y 	c #8BCFE0",
"z 	c #99D5E4",
"A 	c #D0EBF2",
"B 	c #E3F3F8",
"C 	c #E1F2F7",
"D 	c #DFF2F6",
"E 	c #DEF2F6",
"F 	c #DCF0F5",
"G 	c #C4E0EA",
"H 	c #C3DFEA",
"I 	c #C1DEEA",
"J 	c #C0DEE9",
"K 	c #BFDDE9",
"L 	c #BEDDE9",
"M 	c #BDDCE8",
"N 	c #DAECF3",
"O 	c #D9EFF5",
"P 	c #D8EFF5",
"Q 	c #D7EFF5",
"R 	c #D6EEF4",
"S 	c #D5EEF4",
"T 	c #D4EDF4",
"U 	c #D3EDF3",
"V 	c #D2EDF3",
"W 	c #D1ECF3",
"X 	c #D0ECF3",
"Y 	c #BCE3ED",
"Z 	c #8FD1E1",
"` 	c #9BD6E4",
" .	c #C5E7F0",
"..	c #D2ECF3",
"+.	c #CFEBF2",
"@.	c #CBE9F1",
"#.	c #A4CEDF",
"$.	c #A1CDDF",
"%.	c #A0CCDE",
"&.	c #9FCCDE",
"*.	c #9ECBDE",
"=.	c #9DCADD",
"-.	c #9CCADD",
";.	c #CFE6EF",
">.	c #CAE9F1",
",.	c #C9E9F1",
"'.	c #C8E8F1",
").	c #C8E8F0",
"!.	c #C6E8F0",
"~.	c #C6E7F0",
"{.	c #C4E7F0",
"].	c #C2E6EF",
"^.	c #C1E6EF",
"/.	c #B3E0EB",
"(.	c #93D3E2",
"_.	c #95D3E3",
":.	c #C3E7EF",
"<.	c #BCE2EC",
"[.	c #84BDD4",
"}.	c #82BCD4",
"|.	c #81BBD3",
"1.	c #80BBD3",
"2.	c #7FBAD3",
"3.	c #7EB9D2",
"4.	c #7DB9D2",
"5.	c #BCE4ED",
"6.	c #BBE3ED",
"7.	c #BAE3ED",
"8.	c #BAE2ED",
"9.	c #B9E2EC",
"0.	c #B8E2EC",
"a.	c #B7E2EC",
"b.	c #B7E1EC",
"c.	c #B6E1EC",
"d.	c #B6E1EB",
"e.	c #B5E0EB",
"f.	c #ABDDE9",
"g.	c #98D4E3",
"h.	c #9AD6E4",
"i.	c #9FD7E5",
"j.	c #BAE3EC",
"k.	c #AFDCE9",
"l.	c #66ADCA",
"m.	c #63ABC9",
"n.	c #62AAC8",
"o.	c #61AAC8",
"p.	c #5FA9C8",
"q.	c #5EA9C7",
"r.	c #5EA8C7",
"s.	c #B1D6E4",
"t.	c #B0DFEA",
"u.	c #B0DEEA",
"v.	c #AFDEEA",
"w.	c #AFDEE9",
"x.	c #AEDEE9",
"y.	c #ADDDE9",
"z.	c #ACDDE9",
"A.	c #ABDCE8",
"B.	c #AADCE8",
"C.	c #A9DCE8",
"D.	c #A5DAE7",
"E.	c #9CD6E4",
"F.	c #A0D8E5",
"G.	c #A2D8E6",
"H.	c #B2DFEA",
"I.	c #AEDDE9",
"J.	c #A3D7E5",
"K.	c #479CBF",
"L.	c #449ABE",
"M.	c #4299BD",
"N.	c #4199BD",
"O.	c #4098BD",
"P.	c #3F98BC",
"Q.	c #3E97BC",
"R.	c #A2CEDF",
"S.	c #A7DBE7",
"T.	c #A6DAE7",
"U.	c #A4DAE6",
"V.	c #A4D9E6",
"W.	c #A3D9E6",
"X.	c #A2D9E6",
"Y.	c #A1D8E6",
"Z.	c #A1D8E5",
"`.	c #A8DBE8",
" +	c #A7DAE7",
".+	c #9CD4E3",
"++	c #3190B7",
"@+	c #2E8EB6",
"#+	c #2D8EB6",
"$+	c #9BCADD",
"%+	c #A0D6E4",
"&+	c #9FD5E4",
"*+	c #96D0E0",
"=+	c #3090B7",
"-+	c #92C5DA",
";+	c #A6D9E6",
">+	c #ABDBE8",
",+	c #3694BA",
"'+	c #2F8FB7",
")+	c #9ECDDF",
"!+	c #B4E0EB",
"~+	c #B0DDE9",
"{+	c #3593B9",
"]+	c #A4D0E0",
"^+	c #B2DFEB",
"/+	c #B4DFEA",
"(+	c #A5D0E1",
"_+	c #BEE4EE",
":+	c #B9E1EC",
"<+	c #A6D0E1",
"[+	c #BEE3ED",
"}+	c #A7D1E1",
"|+	c #C0E5EE",
"1+	c #C9E9F0",
"2+	c #C4E5EE",
"3+	c #3693B9",
"4+	c #A8D1E1",
"5+	c #D1ECF2",
"6+	c #9ECEDF",
"7+	c #A0CEDF",
"8+	c #97C9DC",
"9+	c #308FB7",
"0+	c #75B5CF",
"a+	c #CCE6EF",
"b+	c #CDEAF2",
"c+	c #CAE7F0",
"d+	c #DEF1F6",
"e+	c #CFE9F1",
"f+	c #D4EBF2",
"g+	c #DAF0F5",
"h+	c #D9EDF3",
"i+	c #3190B8",
"j+	c #DDEFF5",
"k+	c #A1CCDE",
"l+	c #E2F1F6",
"m+	c #F4FAFB",
"n+	c #CEE5EE",
"o+	c #CDE5EE",
"p+	c #E7F2F7",
"q+	c #DDF1F6",
"r+	c #89CEDF",
"s+	c #D0ECF2",
"t+	c #D9F0F5",
"      . . . . . . . . . . . . . . . . . . . . . . . . . . . . . . . . . . . . . . . . . .       ",
"    . . . . . . . . . . . . . . . . . . . . . . . . . . . . . . . . . . . . . . . . . . . .     ",
"  . . . . . . . . . . . . . . . . . . . . . . . . . . . . . . . . . . . . . . . . . . . . . .   ",
". . . . . + @ # # # # # # # # # # # # # # # # # # # # # # # # # # # # # # # # # # @ $ . . . . . ",
". . . . % & * = = = = = = = = = = = = = = = = = = = = = = = = = = = = = = = = = = - ; > . . . . ",
". . . , ' ) ! ! ! ! ! ! ! ! ! ! ! ! ! ! ! ! ! ! ! ! ! ! ! ! ! ! ! ! ! ! ! ! ! ! ! ! ~ { ] . . . ",
". . . ^ / ( ! ! ! ! ! ! ! ! _ _ _ _ _ ( ( ( : < < < [ [ } | 1 1 2 2 3 3 4 4 5 6 7 8 9 0 a . . . ",
". . . % b 3 3 4 5 5 6 7 8 c d e e 9 ~ f g h i j k l m m n n o p q r r * - - s t u v w 0 x . . . ",
". y y z A r * * - - B t u v C w w D E F G H I J K L M N O P Q b R R S T T U U V W W X Y > y y . ",
". Z ^ `  .R R R S T T U U ....W X X +.@.#.$.%.&.*.=.-.;.>.,.'.).& & !.~. .{.; 0 0 ].^./.% ^ Z . ",
". (._.@ Y ,.).).& !.!. . .; ; :.0 ].].<.[.}.|.1.2.3.4.J 5.Y 6.6.7.8.9.0.0.a.b.c.d.' e.f.z _.(.. ",
". g.h.i./.5.Y 6.6.7.j.9.9.0.0.a.b.d.d.k.l.m.n.o.p.q.r.s.{ t.u.v.w.x.x.y.z.z.z.A.B.B.C.D.E.h.g.. ",
". E.F.G.z.H.{ { { u.v.w.x.x.I.y.y.z.z.J.K.L.M.N.O.P.Q.R.S.T.T.D.D.D.U.V.W.W.W.X.X.X.X.Y.F.F.E.. ",
". Z.D.D.S.`.`.`.S.S.S.S. +T.T.T.T.T.D..+++@+#+#+#+#+#+$+D.D.D.D.D.D.D.D.D.D.D.D.D.D.D.D.D.D.Z.. ",
". D.B.B.B.B.B.B.B.B.B.B.C.%+&+&+&+&+&+*+=+#+#+#+#+#+#+-+&+&+&+&+&+&+;+B.B.B.B.B.B.B.B.B.B.B.D.. ",
". B.v.v.v.v.v.v.v.v.v.v.>+,+'+'+'+'+'+'+#+#+#+#+#+#+#+'+'+'+'+'+'+'+)+v.v.v.v.v.v.v.v.v.v.v.B.. ",
". x.!+!+!+!+!+!+!+!+!+!+~+{+#+#+#+#+#+#+#+#+#+#+#+#+#+#+#+#+#+#+#+#+]+!+!+!+!+!+!+!+!+!+!+!+x.. ",
". ^+9.9.9.9.9.9.9.9.9.9./+{+#+#+#+#+#+#+#+#+#+#+#+#+#+#+#+#+#+#+#+#+(+9.9.9.9.9.9.9.9.9.9.9.^+. ",
". b._+_+_+_+_+_+_+_+_+_+:+{+#+#+#+#+#+#+#+#+#+#+#+#+#+#+#+#+#+#+#+#+<+_+_+_+_+_+_+_+_+_+_+_+b.. ",
". 6.; ; ; ; ; ; ; ; ; ; [+{+#+#+#+#+#+#+#+#+#+#+#+#+#+#+#+#+#+#+#+#+}+; ; ; ; ; ; ; ; ; ; ; 6.. ",
". |+1+1+1+1+1+1+1+1+1+1+2+3+#+#+#+#+#+#+#+#+#+#+#+#+#+#+#+#+#+#+#+#+}+1+1+1+1+1+1+1+1+1+1+1+|+. ",
". ; / / / / / / / / / / ).3+#+#+#+#+#+#+#+#+#+#+#+#+#+#+#+#+#+#+#+#+4+/ / / / / / / / / / / ; . ",
". ).U U U U U U U U U U 5+6+7+7+7+7+7+8+9+#+#+#+#+#+#+0+7+7+7+7+7+7+a+U U U U U U U U U U U ).. ",
". b+P P P P P P P P P P P P P P P P P c+++#+#+#+#+#+#+&.P P P P P P P P P P P P P P P P P P b+. ",
". W d+d+d+d+d+d+d+d+d+d+d+d+d+d+d+d+d+e+++#+#+#+#+#+#+&.d+d+d+d+d+d+d+d+d+d+d+d+d+d+d+d+d+d+W . ",
". R t t t t t t t t t t t t t t t t t f+++#+#+#+#+#+#+%.t t t t t t t t t t t t t t t t t t R . ",
". g+= = = = = = = = = = = = = = = = = h+i+#+#+#+#+#+#+%.= = = = = = = = = = = = = = = = = = g+. ",
". E h h h h h h h h h h h h h h h h h j+i+#+#+#+#+#+#+k+h h h h h h h h h h h h h h h h h h E . ",
". t c c c c c c c c c c c c c c c c c l+i+#+#+#+#+#+#+$.c c c c c c c c c c c c c c c c c c t . ",
". q 3 3 3 3 3 3 3 3 3 3 3 3 3 3 3 3 3 m+n+o+o+o+o+o+o+p+3 3 3 3 3 3 3 3 3 3 3 3 3 3 3 3 3 3 q . ",
". m < < < < < < < < < < < < < < < < < < < < < < < < < < < < < < < < < < < < < < < < < < < < m . ",
". q+! ! ! ! ! ! ! ! ! ! ! ! ! ! ! ! ! ! ! ! ! ! ! ! ! ! ! ! ! ! ! ! ! ! ! ! ! ! ! ! ! ! ! ! q+. ",
". { ! ! ! ! ! ! ! ! ! ! ! ! ! ! ! ! ! ! ! ! ! ! ! ! ! ! ! ! ! ! ! ! ! ! ! ! ! ! ! ! ! ! ! ! { . ",
"  r+s+! ! ! ! ! ! ! ! ! ! ! ! ! ! ! ! ! ! ! ! ! ! ! ! ! ! ! ! ! ! ! ! ! ! ! ! ! ! ! ! ! ! s+r+  ",
"    . y.W t+t+t+t+t+t+t+t+t+t+t+t+t+t+t+t+t+t+t+t+t+t+t+t+t+t+t+t+t+t+t+t+t+t+t+t+t+t+W y..     ",
"      . . . . . . . . . . . . . . . . . . . . . . . . . . . . . . . . . . . . . . . . . .       "};
